<?xml version="1.0" encoding="UTF-8" standalone="no"?>
<!-- Created with Inkscape (http://www.inkscape.org/) -->

<svg
   width="210mm"
   height="297mm"
   viewBox="0 0 210 297"
   version="1.1"
   id="svg5"
   inkscape:version="1.2.1 (9c6d41e410, 2022-07-14)"
   sodipodi:docname="projet_arduino_couvercle.svg"
   xml:space="preserve"
   xmlns:inkscape="http://www.inkscape.org/namespaces/inkscape"
   xmlns:sodipodi="http://sodipodi.sourceforge.net/DTD/sodipodi-0.dtd"
   xmlns:xlink="http://www.w3.org/1999/xlink"
   xmlns="http://www.w3.org/2000/svg"
   xmlns:svg="http://www.w3.org/2000/svg"><sodipodi:namedview
     id="namedview7"
     pagecolor="#ffffff"
     bordercolor="#000000"
     borderopacity="0.25"
     inkscape:showpageshadow="2"
     inkscape:pageopacity="0.0"
     inkscape:pagecheckerboard="0"
     inkscape:deskcolor="#d1d1d1"
     inkscape:document-units="mm"
     showgrid="false"
     inkscape:zoom="2.7652076"
     inkscape:cx="367.6035"
     inkscape:cy="360.91323"
     inkscape:window-width="1920"
     inkscape:window-height="974"
     inkscape:window-x="-11"
     inkscape:window-y="-11"
     inkscape:window-maximized="1"
     inkscape:current-layer="layer1" /><defs
     id="defs2"><linearGradient
       inkscape:collect="always"
       id="linearGradient2895"><stop
         style="stop-color:#808080;stop-opacity:1;"
         offset="0"
         id="stop2891" /><stop
         style="stop-color:#808080;stop-opacity:0;"
         offset="1"
         id="stop2893" /></linearGradient><linearGradient
       inkscape:collect="always"
       xlink:href="#linearGradient2895"
       id="linearGradient2897"
       x1="31.288338"
       y1="118.1685"
       x2="65.255798"
       y2="98.553482"
       gradientUnits="userSpaceOnUse"
       gradientTransform="matrix(1.6910011,0,0,1.635426,-99.598831,-81.937988)" /></defs><g
     inkscape:label="Calque 1"
     inkscape:groupmode="layer"
     id="layer1"><rect
       style="fill:#ffffff;stroke:#ff0000;stroke-width:0.0999985;stroke-dasharray:none;stroke-opacity:1"
       id="rect273"
       width="75.900002"
       height="54.5"
       x="67.755531"
       y="65.534424" /><rect
       style="fill:#ffffff;stroke:#ff0000;stroke-width:0.1;stroke-dasharray:none;stroke-opacity:1"
       id="rect2718"
       width="54.981983"
       height="5.8603973"
       x="86.916023"
       y="66.904297" /><rect
       style="fill:url(#linearGradient2897);fill-opacity:1;stroke:#ff0000;stroke-width:0.1;stroke-dasharray:none;stroke-opacity:1"
       id="rect2720"
       width="65.356476"
       height="5.8346963"
       x="75.287338"
       y="112.35542" /><rect
       style="fill:#ffffff;stroke:#ff0000;stroke-width:0.1;stroke-dasharray:none;stroke-opacity:1"
       id="rect2722"
       width="9.9944248"
       height="9.5420427"
       x="70.44976"
       y="67.131531"
       inkscape:transform-center-x="-0.59956579"
       inkscape:transform-center-y="0.7632388" /><rect
       style="fill:#ffffff;stroke:#ff0000;stroke-width:0.1;stroke-dasharray:none;stroke-opacity:1"
       id="rect2963"
       width="12.022437"
       height="15.131248"
       x="129.37936"
       y="79.961418" /><path
       style="fill:none;stroke-width:0.1;stroke:#000000;stroke-opacity:1;stroke-dasharray:none"
       d="m 100.37766,89.452373 -0.0371,-2.014406 -2.933767,-0.01516 -2.93377,-0.01516 -0.0436,1.909949 c -0.0241,1.050474 -0.005,2.016667 0.0431,2.147101 0.0539,0.146678 1.20402,0.192321 3.01452,0.119666 l 2.927387,-0.117511 z"
       id="path3299" /><path
       style="fill:none;stroke-width:0.1;stroke:#000000;stroke-opacity:1;stroke-dasharray:none"
       d="m 109.18764,91.562636 0.85357,-0.765667 0.93771,0.734339 c 2.41145,1.888508 5.68207,-0.112578 4.7002,-2.875728 -0.7083,-1.993197 -3.11131,-2.319325 -4.88974,-0.66364 -0.46003,0.428265 -0.63069,0.467593 -0.98272,0.226425 -0.23433,-0.160499 -0.76299,-0.502775 -1.17482,-0.760602 -2.19585,-1.374688 -5.05551,0.638942 -4.2847,3.017082 0.41896,1.292592 1.3249,1.899992 2.79554,1.874274 0.97957,-0.0171 1.34314,-0.156935 2.04496,-0.786483 z"
       id="path3289" /><path
       style="fill:none;stroke-width:0.1;stroke:#000000;stroke-opacity:1;stroke-dasharray:none"
       d="m 98.193963,95.194022 c -0.0526,-2.860577 -0.22785,-3.408597 -0.90617,-2.834343 -0.25948,0.219686 -0.3349,0.870636 -0.30281,2.614024 0.0485,2.63612 0.16253,3.06938 0.80501,3.05816 0.42198,-0.008 0.45215,-0.21925 0.40397,-2.837841 z"
       id="path3287" /><path
       style="fill:none;stroke-width:0.1;stroke:#000000;stroke-opacity:1;stroke-dasharray:none"
       d="m 121.06755,98.729211 c 0.16562,-0.0189 0.30095,-0.259181 0.30071,-0.533858 7e-5,-0.346532 -0.11101,-0.457667 -0.36173,-0.36302 -0.24575,0.0928 -0.36141,-0.01334 -0.3617,-0.330205 -3.3e-4,-0.265977 0.16224,-0.466616 0.37778,-0.466586 0.25436,4.62e-4 0.3528,-0.174579 0.30071,-0.533297 -0.0776,-0.533323 -0.0776,-0.533323 -7.18531,-0.533957 l -7.10787,-6.37e-4 -0.073,1.281227 c -0.0438,0.76768 0.0354,1.347098 0.19742,1.445585 0.21676,0.131732 12.79026,0.163156 13.913,0.03471 z"
       id="path3285" /><path
       style="fill:none;stroke-width:0.1;stroke:#000000;stroke-opacity:1;stroke-dasharray:none"
       d="m 101.4005,101.79597 c 0.2153,-0.1397 0.27928,-0.66489 0.20937,-1.71878 l -0.10065,-1.517567 -2.511097,-0.0241 c -1.8466,-0.0178 -2.56164,0.0575 -2.70216,0.2842 -0.29398,0.47449 -0.19108,2.667327 0.13999,2.981477 0.33783,0.32064 4.469167,0.31632 4.964627,-0.006 z"
       id="path3283" /><path
       style="color:#000000;fill:#000000;-inkscape-stroke:none"
       d="m 98.896484,83.095703 c -0.816899,0.02468 -1.266179,0.06476 -1.533203,0.128906 -0.133512,0.03207 -0.222163,0.07117 -0.287109,0.119141 -0.06495,0.04797 -0.102927,0.104315 -0.134766,0.162109 -0.08273,0.150182 -0.141828,0.384894 -0.183594,0.666016 -0.04176,0.281122 -0.06563,0.607173 -0.07031,0.929687 -0.0047,0.322515 0.01108,0.642905 0.04492,0.91211 0.03384,0.269205 0.08377,0.48598 0.166015,0.615234 0.103306,0.162398 0.222743,0.257475 0.34961,0.283203 0.126867,0.02573 0.253742,-0.02289 0.361328,-0.123047 0.215172,-0.200307 0.37361,-0.605169 0.416016,-1.146484 l 0.07617,-0.974609 11.458988,0.0078 11.45508,0.0078 -0.01,1.816406 c -0.004,0.757342 0.0162,1.254208 0.0879,1.628906 0.0716,0.374698 0.19728,0.626974 0.39648,0.878906 0.114,0.144156 0.1968,0.264945 0.25977,0.466797 0.063,0.201853 0.10577,0.486458 0.13086,0.947266 0.0502,0.921616 0.0306,2.548071 -0.0156,5.640625 l -0.0957,6.42578 -12.35937,-0.0273 c -5.55669,-0.0122 -8.66399,-0.01 -10.412113,0.0391 -0.874062,0.0244 -1.407576,0.0597 -1.740235,0.11133 -0.166329,0.0258 -0.284281,0.0556 -0.36914,0.0918 -0.08486,0.0362 -0.138616,0.0827 -0.171875,0.13476 -0.09496,0.14864 -0.133944,0.28157 -0.09375,0.41211 0.04019,0.13054 0.151771,0.24709 0.330078,0.37891 0.113626,0.084 0.317989,0.13926 0.724609,0.1875 0.406621,0.0482 1.014567,0.0869 1.929688,0.11718 1.830238,0.0606 4.886368,0.0924 9.986328,0.12305 l 12.16602,0.0723 0.83593,-0.81446 0.83985,-0.8164 0.0332,-6.644534 c 0.0159,-3.142042 0.0178,-4.805483 -0.041,-5.751954 -0.0294,-0.473235 -0.0729,-0.767687 -0.14062,-0.980468 -0.0677,-0.212782 -0.16191,-0.342252 -0.27734,-0.47461 -0.19123,-0.219309 -0.30482,-0.429626 -0.37305,-0.777343 -0.0682,-0.347718 -0.0878,-0.832814 -0.084,-1.583985 0.003,-0.50897 -0.02,-1.039759 -0.0605,-1.486328 -0.0405,-0.446568 -0.0954,-0.805751 -0.16406,-0.986328 l -0.24415,-0.640625 -12.4414,-0.07422 c -6.0094,-0.03609 -9.1123,-0.05132 -10.746096,-0.002 z m 0.0039,0.09961 c 1.629359,-0.04923 4.732829,-0.03414 10.742189,0.002 l 12.37109,0.07422 0.22071,0.578125 c 0.0588,0.154598 0.11802,0.516008 0.1582,0.958985 0.0402,0.442976 0.063,0.97106 0.0606,1.476562 -0.004,0.753141 0.0151,1.242344 0.0859,1.603516 0.0709,0.361172 0.19697,0.595406 0.39649,0.824219 0.11187,0.128272 0.19243,0.238222 0.25586,0.4375 0.0634,0.199277 0.10755,0.487506 0.13672,0.957031 0.0583,0.93905 0.0569,2.60223 0.041,5.74414 l -0.0332,6.603518 -0.8086,0.78711 -0.80859,0.78711 -12.125,-0.0742 c -5.09978,-0.0306 -8.15469,-0.0626 -9.982422,-0.12305 -0.913864,-0.0303 -1.520869,-0.0677 -1.921875,-0.11523 -0.401005,-0.0476 -0.595704,-0.10733 -0.677734,-0.16797 -0.171386,-0.1267 -0.263466,-0.23231 -0.292969,-0.32813 -0.0295,-0.0958 -0.0053,-0.19341 0.08203,-0.33007 0.02112,-0.0331 0.05454,-0.0629 0.126953,-0.0937 0.07241,-0.0309 0.182027,-0.0608 0.34375,-0.0859 0.323446,-0.0502 0.856047,-0.0851 1.728516,-0.10938 1.74494,-0.0486 4.85359,-0.0533 10.41016,-0.041 l 12.45898,0.0273 0.0977,-6.523437 c 0.0463,-3.092673 0.0643,-4.719124 0.0137,-5.648437 -0.0253,-0.464657 -0.0677,-0.755707 -0.13477,-0.970704 -0.0671,-0.214996 -0.16079,-0.352617 -0.27734,-0.5 -0.19197,-0.242785 -0.3058,-0.472016 -0.375,-0.833984 -0.0692,-0.361968 -0.0899,-0.856026 -0.0859,-1.611328 l 0.008,-1.916016 -11.55468,-0.0078 -11.550784,-0.0078 -0.08398,1.066407 c -0.04116,0.525342 -0.202079,0.911964 -0.384765,1.082031 -0.09134,0.08503 -0.182258,0.116147 -0.273438,0.09766 -0.09118,-0.01849 -0.190935,-0.09212 -0.285156,-0.240234 C 96.918773,86.474187 96.863121,86.262873 96.830078,86 c -0.03304,-0.262873 -0.04564,-0.577847 -0.04102,-0.896484 0.0046,-0.318638 0.02745,-0.640628 0.06836,-0.916016 0.04091,-0.275388 0.101378,-0.504844 0.171875,-0.632813 0.02913,-0.05288 0.05518,-0.09372 0.105469,-0.130859 0.05028,-0.03714 0.126345,-0.07139 0.251953,-0.101562 0.251215,-0.06035 0.698993,-0.102338 1.513672,-0.126954 z"
       id="path3281" /></g></svg>
